<svg xmlns="http://www.w3.org/2000/svg" xmlns:xlink="http://www.w3.org/1999/xlink" width="200" zoomAndPan="magnify" viewBox="0 0 150 149.999998" height="200" preserveAspectRatio="xMidYMid meet" version="1.0"><defs><g/></defs><path fill="#ff6400" d="M 5.921875 45.773438 C 9.683594 36.851562 15.097656 28.820312 21.984375 21.957031 C 28.847656 15.070312 36.878906 9.65625 45.796875 5.894531 C 55.050781 1.980469 64.859375 0 75 0 C 85.140625 0 94.949219 1.980469 104.203125 5.894531 C 113.121094 9.65625 121.152344 15.070312 128.015625 21.957031 C 134.902344 28.847656 140.292969 36.851562 144.078125 45.796875 C 147.992188 55.050781 149.972656 64.859375 149.972656 75 C 149.972656 85.140625 147.992188 94.949219 144.078125 104.203125 C 140.316406 113.121094 134.902344 121.152344 128.015625 128.042969 C 121.128906 134.929688 113.121094 140.316406 104.175781 144.105469 C 94.925781 148.019531 85.113281 150 74.972656 150 C 64.832031 150 55.023438 148.019531 45.773438 144.105469 C 36.851562 140.34375 28.820312 134.929688 21.933594 128.042969 C 15.097656 121.128906 9.683594 113.097656 5.921875 104.175781 C 2.007812 94.925781 0.0273438 85.113281 0.0273438 74.972656 C 0.0273438 64.832031 2.007812 55.023438 5.921875 45.773438 Z M 5.921875 45.773438 " fill-opacity="1" fill-rule="nonzero"/><g fill="#ffffff" fill-opacity="1"><g transform="translate(38.999999, 116.999995)"><g><path d="M 49.5625 0.953125 C 47.15625 0.953125 45.269531 0.296875 43.90625 -1.015625 C 42.550781 -2.335938 41.875 -4.238281 41.875 -6.71875 L 41.875 -16.078125 L 12.234375 -16.078125 C 9.753906 -16.078125 7.773438 -16.597656 6.296875 -17.640625 C 4.816406 -18.679688 4.078125 -20.320312 4.078125 -22.5625 C 4.078125 -23.84375 4.414062 -25.242188 5.09375 -26.765625 C 5.78125 -28.285156 7.003906 -30.285156 8.765625 -32.765625 L 41.640625 -80.40625 C 42.753906 -82.082031 43.992188 -83.359375 45.359375 -84.234375 C 46.722656 -85.117188 48.285156 -85.5625 50.046875 -85.5625 C 52.117188 -85.5625 53.832031 -84.941406 55.1875 -83.703125 C 56.550781 -82.460938 57.234375 -80.519531 57.234375 -77.875 L 57.234375 -28.796875 L 63.125 -28.796875 C 65.4375 -28.796875 67.171875 -28.253906 68.328125 -27.171875 C 69.492188 -26.097656 70.078125 -24.519531 70.078125 -22.4375 C 70.078125 -20.351562 69.492188 -18.769531 68.328125 -17.6875 C 67.171875 -16.613281 65.4375 -16.078125 63.125 -16.078125 L 57.234375 -16.078125 L 57.234375 -6.71875 C 57.234375 -4.238281 56.550781 -2.335938 55.1875 -1.015625 C 53.832031 0.296875 51.957031 0.953125 49.5625 0.953125 Z M 41.875 -28.796875 L 41.875 -66.234375 L 45.359375 -66.234375 L 17.046875 -24.71875 L 17.046875 -28.796875 Z M 41.875 -28.796875 "/></g></g></g></svg>